inDegrees=no
num_controls=7
num_derivatives=13
num_iterations=83
num_multipliers=7
num_parameters=0
num_slacks=7
num_states=26
objective=0.516415
objective_accelerations=0.041455
objective_balance=0.002327
objective_effort=0.045863
objective_height=0.415151
objective_ligament=0.011619
solver_duration=1119.931379
status=Solve_Succeeded
success=true
DataType=double
version=3
OpenSimVersion=4.5
endheader
time	/jointset/ground_pelvis/pelvis_tilt/value	/jointset/ground_pelvis/pelvis_tx/value	/jointset/ground_pelvis/pelvis_ty/value	/jointset/hip_l/hip_flexion_l/value	/jointset/hip_l/hip_adduction_l/value	/jointset/hip_l/hip_rotation_l/value	/jointset/back/lumbar_extension/value	/jointset/patellofemoral_l/patellar_flexion_l/value	/jointset/knee_l/knee_flexion_l/value	/jointset/knee_l/knee_adduction_l/value	/jointset/knee_l/knee_rotation_l/value	/jointset/ankle_l/ankle_angle_l/value	/jointset/subtalar_l/subtalar_angle_l/value	/jointset/ground_pelvis/pelvis_tilt/speed	/jointset/ground_pelvis/pelvis_tx/speed	/jointset/ground_pelvis/pelvis_ty/speed	/jointset/hip_l/hip_flexion_l/speed	/jointset/hip_l/hip_adduction_l/speed	/jointset/hip_l/hip_rotation_l/speed	/jointset/back/lumbar_extension/speed	/jointset/patellofemoral_l/patellar_flexion_l/speed	/jointset/knee_l/knee_flexion_l/speed	/jointset/knee_l/knee_adduction_l/speed	/jointset/knee_l/knee_rotation_l/speed	/jointset/ankle_l/ankle_angle_l/speed	/jointset/subtalar_l/subtalar_angle_l/speed	/forceset/tau_hip_flexion_l	/forceset/tau_hip_adduction_l	/forceset/tau_hip_rotation_l	/forceset/tau_knee_flexion_l	/forceset/tau_ankle_angle_l	/forceset/tau_subtalar_angle_l	/forceset/tau_lumbar_extension	lambda_cid13_p0	lambda_cid13_p1	lambda_cid13_p2	lambda_cid13_p3	lambda_cid13_p4	lambda_cid13_p5	lambda_cid14_p0	/jointset/ground_pelvis/pelvis_tilt/accel	/jointset/ground_pelvis/pelvis_tx/accel	/jointset/ground_pelvis/pelvis_ty/accel	/jointset/hip_l/hip_flexion_l/accel	/jointset/hip_l/hip_adduction_l/accel	/jointset/hip_l/hip_rotation_l/accel	/jointset/back/lumbar_extension/accel	/jointset/patellofemoral_l/patellar_flexion_l/accel	/jointset/knee_l/knee_flexion_l/accel	/jointset/knee_l/knee_adduction_l/accel	/jointset/knee_l/knee_rotation_l/accel	/jointset/ankle_l/ankle_angle_l/accel	/jointset/subtalar_l/subtalar_angle_l/accel	gamma_cid13_p0	gamma_cid13_p1	gamma_cid13_p2	gamma_cid13_p3	gamma_cid13_p4	gamma_cid13_p5	gamma_cid14_p0
0.5	-0.1323018029640674	-0.06406471909459514	0.8188426235107482	0.9228973863684202	-0.3240334891075612	-0.1197449169078285	-0.782376105608485	0.7968301660271532	0.7968301660271698	-0.1085421054665996	-0.1744728770727242	0.06036516577474987	-0.01095234267321762	-0.2376507428621039	-0.2168622926463382	-0.3585901424814638	1.570081889454709	-0.0406128127349604	0.4672930713475839	-0.8346224410788969	1.459785085487408	1.459785085487398	0.1298245932275165	0.0006115636375718895	0.2188391124404375	0.02405162803563467	-0.2889584317129361	0.03681521575548754	-0.003676706304166652	-0.2146772687141436	0.1371169020465848	0.03132201694960581	0.3342522905004698	-1.19548430452424	-14.43292816933595	3.03359465678798	-11.80999972796585	-703.4911973162567	-60.19570750166273	-14.58843809234626	0.2969539246081731	0.7005878811105811	-0.117586283478926	-1.487964360946942	0.2270051512782754	-0.3204821096935205	1.734632543587489	-1.116850699962722	-1.116850699962718	-0.3152698818513699	0.03033912048213891	0.02657501380690433	0.2541273515983549	-8.906800460753756e-08	-3.765967032907499e-07	3.088717802736206e-07	-1.446818932947609e-08	-1.119545209498358e-07	-1.833379351693894e-08	-9.841078005957245e-08
0.51	-0.1346631555878971	-0.06619822205407702	0.8152516256569412	0.9385215173013431	-0.3244287023660153	-0.1150889786540328	-0.7906348169606995	0.8113698453919566	0.8113698453918873	-0.1072603285209164	-0.1744660146719919	0.0625541622620541	-0.0106997995731912	-0.2345889249651621	-0.2098304188317481	-0.3595288005881412	1.554530544249839	-0.03842252537911945	0.4637860707129139	-0.8170414163928971	1.447931632439864	1.447931632439854	0.1265700089338331	0.000730224299627746	0.2189115276752268	0.02645182048768253	-0.295539786367166	0.03718781017410414	-0.003894397280064989	-0.2172745820482815	0.1376893798525133	0.03165186045052924	0.3404825338237953	-1.245556872411536	-14.50272229837283	2.970830568661785	-11.8436674898912	-707.530221932789	-60.0002898904304	-14.04948076347743	0.3154138177144357	0.7056705867929324	-0.06993585299993108	-1.620795394287701	0.2161203626046944	-0.3821827492824189	1.781599377100201	-1.252444807006926	-1.252444807006905	-0.3247133590939347	-0.00188163610469658	-0.009733217330324213	0.2321883519984421	-1.115859158916743e-07	-2.611367647260197e-07	4.946026454730417e-07	1.960714092654334e-08	-1.254615013744958e-07	-4.848221958304187e-09	-1.06791635413394e-07
0.52	-0.1369929664136651	-0.06826116958438143	0.8116536551663198	0.9539837196234091	-0.3248017967839266	-0.1104713851484041	-0.7987153656768571	0.8257844197862695	0.8257844197861973	-0.1060099295492518	-0.17445886789975	0.06474242130257449	-0.01042340991664631	-0.2313423832490726	-0.2027512068108437	-0.3599846698443454	1.537696167283755	-0.03618904462855702	0.4596241217210835	-0.798989913867108	1.434764091398046	1.434764091398036	0.1235489984014567	0.0006684379548120452	0.2186916230842015	0.0288209393393446	-0.3021211410214355	0.03756040459265886	-0.004112088255172879	-0.2198718953824783	0.1382618576584043	0.0319817039513418	0.346712777147109	-1.299103731509816	-14.57276894022666	2.909090306092993	-11.90686085726064	-711.6461186519603	-59.83711999551581	-13.50745586649794	0.3338986884380279	0.7100555223732011	-0.02102851338428868	-1.744570713189602	0.2356438302226123	-0.4514717811256789	1.82872811154553	-1.379668298817494	-1.379668298817508	-0.2685551295899106	-0.005750280892205009	-0.03188895135627993	0.2479126315211112	-1.248104614548042e-07	-1.648311615551879e-07	6.206672585185204e-07	4.51498877196399e-08	-1.321277521097509e-07	1.070843502208423e-08	-1.098612785234655e-07
0.53	-0.1392894074345915	-0.07025313617717845	0.8080535593442045	0.9692711663651122	-0.3251525860209446	-0.1058972149107019	-0.8066131250735241	0.8400607273156362	0.8400607273156032	-0.1047898874769108	-0.1744523475131983	0.06692696866561795	-0.01012378844206373	-0.2279157414749907	-0.1956389478324714	-0.3599512708185401	1.519576455598908	-0.03398226866814873	0.4551851018614149	-0.7804928046676327	1.420275503465521	1.420275503465492	0.1204097730185773	0.0006480529124890051	0.2181641526896278	0.03107276882485236	-0.3085677251410918	0.03782053914559978	-0.004298368853920691	-0.2224645698196542	0.1386987025038266	0.03223761189259767	0.352792570333439	-1.39840237711589	-14.60174873046097	2.8397221326702	-11.86783998339399	-715.7152693834835	-59.62752490663546	-12.96318402700544	0.3515444178950418	0.7122973857566894	0.02798054866140684	-1.878198266692029	0.2110965544048133	-0.4439443815096709	1.870576444251835	-1.516718397071698	-1.516718397074542	-0.3440532475939321	0.001817619522537264	-0.07123156946125128	0.2091681895346916	-1.291464616835838e-07	-1.004972823307724e-07	6.854142194224153e-07	5.921193091711006e-08	-1.300657878987346e-07	2.498400633122643e-08	-1.093749075368669e-07
0.54	-0.1415506825385933	-0.07217388292015467	0.8044562887999664	0.9843709106158431	-0.3254817270832737	-0.101368200330212	-0.8143238385541773	0.8541854960943496	0.8541854960943732	-0.1036027270593956	-0.1744456309299777	0.06910463022752435	-0.009802578656132335	-0.2243091998607948	-0.1885072368466832	-0.3594196142688166	1.500155669091672	-0.03185940968954001	0.4505929902768563	-0.7615807306639967	1.404456341268925	1.404456341268876	0.116972667437418	0.0007076772871636098	0.2173144628569172	0.03313860160912341	-0.3150143092607454	0.03808067369854087	-0.004484649452749652	-0.2250572442568273	0.1391355473492507	0.03249351983385981	0.3588723635197708	-1.501920680128744	-14.63095100800207	2.771487933009606	-11.85803612749344	-719.8723205854309	-59.45687137323667	-12.417612552321	0.369878656461082	0.7139459238561996	0.07862299139932712	-2.004785677667276	0.218860433862705	-0.4820901261036828	1.911721072377885	-1.645783151631752	-1.645783151631802	-0.3281311692458453	0.01025160250729876	-0.09633283898388244	0.2107132912736936	-1.236483266488271e-07	-7.153637428111554e-08	6.823203737015781e-07	6.057191907261044e-08	-1.183470752365244e-07	3.784220625941536e-08	-1.049542230816117e-07
